<svg width="25" height="32" viewBox="0 0 25 32" fill="none" xmlns="http://www.w3.org/2000/svg">
<path fill-rule="evenodd" clip-rule="evenodd" d="M4.25 1.25C4.25 0.918479 4.35865 0.600537 4.55205 0.366117C4.74544 0.131696 5.00775 0 5.28125 0H23.8438C24.1173 0 24.3796 0.131696 24.573 0.366117C24.7664 0.600537 24.875 0.918479 24.875 1.25V11.25C24.875 11.5815 24.7664 11.8995 24.573 12.1339C24.3796 12.3683 24.1173 12.5 23.8438 12.5H5.28125C5.00775 12.5 4.74544 12.3683 4.55205 12.1339C4.35865 11.8995 4.25 11.5815 4.25 11.25V7.5H2.1875V15H12.5C12.7735 15 13.0358 15.1317 13.2292 15.3661C13.4226 15.6005 13.5312 15.9185 13.5312 16.25V20H14.5625C14.836 20 15.0983 20.1317 15.2917 20.3661C15.4851 20.6005 15.5938 20.9185 15.5938 21.25V30C15.5938 30.3315 15.4851 30.6495 15.2917 30.8839C15.0983 31.1183 14.836 31.25 14.5625 31.25H10.4375C10.164 31.25 9.90169 31.1183 9.7083 30.8839C9.5149 30.6495 9.40625 30.3315 9.40625 30V21.25C9.40625 20.9185 9.5149 20.6005 9.7083 20.3661C9.90169 20.1317 10.164 20 10.4375 20H11.4688V17.5H1.15625C0.882746 17.5 0.620443 17.3683 0.427046 17.1339C0.233649 16.8995 0.125 16.5815 0.125 16.25V6.25C0.125 5.91848 0.233649 5.60054 0.427046 5.36612C0.620443 5.1317 0.882746 5 1.15625 5H4.25V1.25Z" fill="#074143"/>
</svg>
