<svg width="28" height="28" viewBox="0 0 28 28" fill="none" xmlns="http://www.w3.org/2000/svg">
<path d="M1.25 12.5833L12.5833 1.25M1.25 21.0833L21.0833 1.25M1.25 5.5C1.25 4.37283 1.69777 3.29183 2.4948 2.4948C3.29183 1.69777 4.37283 1.25 5.5 1.25H22.5C23.6272 1.25 24.7082 1.69777 25.5052 2.4948C26.3022 3.29183 26.75 4.37283 26.75 5.5V22.5C26.75 23.6272 26.3022 24.7082 25.5052 25.5052C24.7082 26.3022 23.6272 26.75 22.5 26.75H5.5C4.37283 26.75 3.29183 26.3022 2.4948 25.5052C1.69777 24.7082 1.25 23.6272 1.25 22.5V5.5Z" stroke="#074143" stroke-width="2" stroke-linecap="round" stroke-linejoin="round"/>
</svg>
