<svg width="34" height="34" viewBox="0 0 34 34" fill="none" xmlns="http://www.w3.org/2000/svg">
<path d="M15.6935 15.342V31.8101L14.5899 32.3596L0.243164 25.2331V7.37408L14.5899 0.230469L28.9367 7.37408V20.1502H26.7295V9.84687L15.6935 15.342ZM14.5899 2.70326L10.4342 4.76392L21.1425 10.156L25.3672 8.06097L14.5899 2.70326ZM13.4863 29.3544V15.342L2.45036 9.84687V23.8594L13.4863 29.3544ZM3.81261 8.06097L14.5899 13.4187L18.6939 11.3924L7.96834 6.00031L3.81261 8.06097ZM22.3151 28.9423V26.7443H33.3511V28.9423H22.3151ZM22.3151 22.3482H33.3511V24.5462H22.3151V22.3482ZM17.9007 33.3384V31.1403H20.1079V33.3384H17.9007ZM17.9007 24.5462V22.3482H20.1079V24.5462H17.9007ZM17.9007 28.9423V26.7443H20.1079V28.9423H17.9007ZM22.3151 33.3384V31.1403H33.3511V33.3384H22.3151Z" fill="#074143"/>
</svg>
