<svg width="24" height="28" viewBox="0 0 24 28" fill="none" xmlns="http://www.w3.org/2000/svg">
<path d="M0.1875 0.09375L5.78662 10.7775C2.43187 12.4151 0.1875 15.3294 0.1875 18.6562C0.1875 23.7733 5.48606 27.9375 12 27.9375C18.5139 27.9375 23.8125 23.7733 23.8125 18.6562C23.8125 15.3305 21.5681 12.4162 18.2134 10.7775L23.8125 0.09375H20.9749L15.8404 9.88856C14.9655 9.65012 14.0581 9.49332 13.1366 9.42141L18.0204 0.09375H15.1828L10.2583 9.48844C9.54422 9.57112 8.84128 9.70506 8.15831 9.88856L3.02512 0.09375H0.1875ZM5.97825 0.09375L9.31331 6.46069L10.7334 3.75159L8.81719 0.09375H5.97825ZM12 11.4375C17.0649 11.4375 21.1875 14.6756 21.1875 18.6562C21.1875 22.6369 17.0649 25.875 12 25.875C6.93506 25.875 2.8125 22.6369 2.8125 18.6562C2.8125 14.6756 6.93506 11.4375 12 11.4375ZM12 14.6983L10.467 17.4002L6.75 17.7199L9.5325 19.6834L8.74894 22.5812L12 21.1086L15.2511 22.5833L14.4688 19.6854L17.25 17.7188L13.533 17.3992L12 14.6983Z" fill="#074143"/>
</svg>
